<?xml version="1.0" encoding="UTF-8"?>
<!-- Generator: visioncortex VTracer 0.6.3 -->
<svg version="1.1" xmlns="http://www.w3.org/2000/svg" width="1280" height="1280">
<path d="M0 0 C1.71 -0.01 3.43 -0.02 5.14 -0.04 C8.72 -0.06 12.3 -0.06 15.88 -0.05 C20.46 -0.04 25.02 -0.08 29.59 -0.15 C33.13 -0.19 36.66 -0.19 40.2 -0.18 C41.89 -0.19 43.57 -0.2 45.25 -0.23 C59.98 -0.45 59.98 -0.45 65.79 4.39 C72.26 10.98 72.82 17.76 72.78 26.53 C72.79 28.13 72.79 28.13 72.8 29.75 C72.82 33.25 72.81 36.74 72.81 40.23 C72.81 42.67 72.82 45.11 72.82 47.55 C72.83 52.65 72.83 57.75 72.82 62.86 C72.81 69.39 72.83 75.92 72.86 82.45 C72.88 87.48 72.88 92.51 72.87 97.54 C72.87 99.95 72.88 102.36 72.89 104.77 C72.9 108.14 72.89 111.5 72.88 114.87 C72.89 115.86 72.9 116.85 72.91 117.87 C72.8 128.1 68.61 134.24 61.75 141.58 C59.38 143.77 59.38 143.77 57.38 143.77 C57.66 152.82 60.54 160.34 63.64 168.72 C64.65 171.54 65.52 174.4 66.38 177.27 C67.89 182.33 69.59 187.3 71.38 192.27 C73.52 198.26 75.48 204.28 77.3 210.38 C78.82 215.17 80.52 219.89 82.27 224.6 C83.58 228.21 84.65 231.77 85.46 235.53 C85.63 236.33 85.81 237.12 85.99 237.95 C86.11 238.55 86.24 239.15 86.38 239.77 C96.66 239.82 106.94 239.84 117.23 239.79 C122.01 239.77 126.78 239.77 131.56 239.8 C136.18 239.83 140.81 239.82 145.43 239.78 C147.18 239.77 148.93 239.78 150.68 239.8 C163.58 239.94 172.32 237.37 183.38 230.77 C184.9 229.95 186.43 229.14 187.97 228.34 C189.72 227.39 191.47 226.44 193.21 225.49 C204.56 219.34 204.56 219.34 211.44 219.46 C212.91 219.46 212.91 219.46 214.41 219.47 C217.65 219.8 220.3 220.69 223.38 221.77 C225.7 222.3 228.04 222.8 230.38 223.27 C234.85 224.17 239.05 225.33 243.38 226.77 C245.7 227.3 248.04 227.8 250.38 228.27 C253.84 228.97 257.11 229.67 260.44 230.86 C263.57 231.83 266.12 231.92 269.38 231.77 C269.13 230.99 268.89 230.22 268.64 229.42 C265.02 217.75 261.59 206.07 258.77 194.19 C257.89 190.56 256.78 187.21 255.38 183.77 C254.66 181.4 253.98 179.03 253.31 176.64 C251.92 171.68 251.92 171.68 250.38 166.77 C248.34 150.73 257.82 137.48 266.38 124.77 C267.04 123.77 267.04 123.77 267.73 122.74 C268.89 121.05 270.13 119.4 271.38 117.77 C272.04 117.77 272.69 117.77 273.38 117.77 C273.64 117.19 273.91 116.61 274.19 116.02 C275.4 113.71 276.68 111.75 278.38 109.77 C279.04 109.77 279.69 109.77 280.38 109.77 C280.38 109.11 280.38 108.45 280.38 107.77 C285.85 102.77 285.85 102.77 288.38 102.77 C288.38 102.11 288.38 101.45 288.38 100.77 C290.77 98.75 293.49 97.14 296.12 95.46 C296.9 94.96 297.67 94.46 298.46 93.95 C304.56 90.11 310.59 87.2 317.38 84.77 C318.12 84.45 318.86 84.14 319.62 83.81 C330.72 79.61 342.32 79.31 354.03 79.43 C356.5 79.46 358.98 79.45 361.46 79.45 C369.64 79.46 377.51 79.81 385.59 81.29 C388.58 81.8 391.54 82.06 394.56 82.27 C402.18 82.84 409.14 84.36 416.38 86.77 C417.47 86.91 418.56 87.06 419.69 87.21 C423.25 87.75 426.29 88.64 429.67 89.82 C432.35 90.76 435.05 91.64 437.75 92.51 C463.94 101.05 463.94 101.05 471.5 112.47 C472.77 115.8 472.64 119.06 472.62 122.58 C472.62 123.76 472.62 123.76 472.62 124.98 C472.62 127.63 472.61 130.29 472.6 132.94 C472.6 134.84 472.6 136.74 472.6 138.65 C472.6 143.81 472.59 148.98 472.58 154.15 C472.57 159.55 472.56 164.94 472.56 170.34 C472.56 180.57 472.54 190.79 472.52 201.02 C472.5 212.66 472.49 224.3 472.48 235.94 C472.45 259.88 472.42 283.82 472.38 307.77 C473.53 307.99 473.53 307.99 474.71 308.22 C481.62 309.65 488.14 312.52 494.37 315.78 C496.56 316.86 498.78 317.76 501.06 318.64 C505.07 320.21 508.97 321.94 512.88 323.77 C517.49 325.92 522.12 327.92 526.86 329.78 C530.7 331.29 534.5 332.89 538.31 334.49 C540.32 335.33 542.33 336.16 544.35 336.99 C549.62 339.16 554.83 341.42 560 343.83 C565.39 346.35 570.84 348.6 576.38 350.77 C583.32 353.51 590.1 356.51 596.81 359.77 C597.49 360.09 598.16 360.41 598.86 360.74 C604.82 363.69 609.3 367.29 611.75 373.7 C613.93 380.95 614.55 388.36 615.1 395.87 C615.43 399.37 616.1 402.72 616.84 406.15 C618.32 413.36 619.34 420.62 619.88 427.96 C620.21 432.46 620.89 436.74 621.84 441.15 C623.32 448.36 624.34 455.62 624.88 462.96 C625.21 467.46 625.89 471.74 626.84 476.15 C628.31 483.32 629.34 490.53 629.81 497.83 C629.98 499.81 630.17 501.79 630.38 503.77 C630.48 504.79 630.58 505.82 630.68 506.87 C631.63 512.64 632.96 515.94 637.68 519.61 C639.25 520.72 640.86 521.78 642.46 522.83 C647.64 526.28 650.6 529.75 652.38 535.77 C652.8 539.36 652.8 542.92 652.78 546.53 C652.79 548.13 652.79 548.13 652.8 549.75 C652.82 553.25 652.81 556.74 652.81 560.23 C652.81 562.67 652.82 565.11 652.82 567.55 C652.83 572.65 652.83 577.75 652.82 582.86 C652.81 589.39 652.83 595.92 652.86 602.45 C652.88 607.48 652.88 612.51 652.87 617.54 C652.87 619.95 652.88 622.36 652.89 624.77 C652.9 628.14 652.89 631.5 652.88 634.87 C652.89 635.86 652.9 636.85 652.91 637.87 C652.82 645.54 650.93 650.67 646.06 656.58 C639.03 662.31 632.51 662.19 623.76 662.13 C622.5 662.13 621.24 662.13 619.95 662.13 C616.51 662.14 613.08 662.12 609.64 662.11 C606.04 662.09 602.44 662.09 598.84 662.09 C592.79 662.09 586.74 662.07 580.69 662.05 C572.94 662.02 565.19 662.01 557.44 662.01 C550.76 662 544.08 661.99 537.39 661.98 C535.26 661.97 533.12 661.97 530.98 661.97 C526.98 661.96 522.99 661.95 518.99 661.93 C517.81 661.93 516.63 661.93 515.42 661.93 C509.95 661.9 504.77 661.63 499.38 660.77 C496.86 661.23 496.86 661.23 494.56 662.14 C490.2 663.61 486.19 664.17 481.61 664.53 C478.68 664.84 476.14 665.77 473.38 666.77 C467.89 668.24 462.5 669.05 456.83 669.43 C454.29 669.7 454.29 669.7 451.67 670.71 C446.67 672.32 441.55 672.89 436.36 673.62 C431.82 674.3 427.72 675.23 423.38 676.77 C420.5 676.89 420.5 676.89 418.38 676.77 C419.03 677.76 419.7 678.75 420.38 679.77 C421.04 681.77 421.71 683.77 422.38 685.77 C423.15 687.22 423.15 687.22 423.94 688.71 C425.53 692.1 426 695.06 426.38 698.77 C427.03 698.77 427.7 698.77 428.38 698.77 C428.57 699.54 428.76 700.31 428.96 701.11 C429.22 702.11 429.48 703.11 429.75 704.14 C430.01 705.14 430.26 706.14 430.52 707.17 C431.2 709.89 431.2 709.89 433.38 711.77 C433.68 712.62 433.99 713.46 434.31 714.33 C434.66 715.14 435.01 715.94 435.38 716.77 C439.1 718.01 440.17 717.32 443.75 715.89 C447.29 714.5 450.62 713.41 454.38 712.77 C457.33 716.21 458.75 719.99 460.25 724.21 C460.78 725.65 461.3 727.09 461.83 728.53 C462.09 729.25 462.35 729.96 462.62 730.7 C465.58 738.8 468.78 746.79 472.12 754.74 C473.87 758.98 475.49 763.27 477.12 767.55 C478.33 770.65 479.59 773.71 480.88 776.77 C483.07 781.99 485.11 787.26 487.12 792.55 C488.33 795.65 489.59 798.71 490.88 801.77 C493.07 806.99 495.11 812.26 497.12 817.55 C498.33 820.65 499.59 823.71 500.88 826.77 C503.09 832.03 505.16 837.33 507.17 842.67 C507.93 844.62 508.73 846.55 509.58 848.46 C512.47 854.97 513.93 861.03 511.64 868 C508.59 874.65 504.19 878.96 497.38 881.77 C496.38 881.77 495.39 881.77 494.38 881.77 C494.68 882.7 494.99 883.64 495.31 884.6 C496.71 889.5 497.03 894.46 497.44 899.52 C497.59 901.39 497.75 903.26 497.91 905.13 C497.98 905.95 498.04 906.77 498.11 907.61 C498.32 909.95 498.32 909.95 499.38 912.77 C499.56 915.23 499.7 917.68 499.81 920.14 C500.15 926.32 500.83 932.33 501.84 938.44 C503.43 948.28 504.46 958.09 504.98 968.04 C505.27 973.06 505.99 977.88 506.9 982.81 C507.6 987.18 507.86 991.55 508.13 995.96 C508.28 998.64 508.28 998.64 508.88 1000.68 C509.63 1003.84 509.66 1007.04 509.81 1010.27 C510.07 1015.19 510.49 1019.92 511.44 1024.77 C514.14 1040.53 511.92 1050.03 504.38 1063.77 C503.63 1065.16 502.89 1066.56 502.16 1067.95 C501.05 1070.06 499.93 1072.16 498.81 1074.25 C495.54 1080.34 492.6 1086.56 489.68 1092.82 C487.09 1098.34 484.31 1103.72 481.39 1109.07 C478.72 1114.01 476.31 1119.05 473.94 1124.14 C471.08 1130.28 468.09 1136.31 464.88 1142.27 C461.23 1149.03 457.88 1155.9 454.63 1162.85 C451.34 1169.89 447.89 1176.84 444.38 1183.77 C447.93 1186.14 449.76 1186.89 453.94 1187.21 C459.92 1187.76 465.65 1188.78 471.31 1190.83 C474 1191.65 476.04 1191.95 478.81 1192.14 C483.33 1192.51 487.53 1193.54 491.88 1194.77 C496.95 1196.21 501.78 1197.12 507.04 1197.5 C515.83 1198.5 523.57 1201.97 529.38 1208.77 C533.07 1214.4 532.83 1219.72 532.81 1226.23 C532.81 1227.34 532.82 1228.44 532.82 1229.58 C532.83 1231.91 532.83 1234.24 532.82 1236.57 C532.81 1240.13 532.84 1243.68 532.87 1247.23 C532.87 1249.5 532.87 1251.77 532.87 1254.04 C532.88 1255.1 532.89 1256.15 532.91 1257.24 C532.83 1265.37 531.09 1270.59 525.81 1276.77 C523.38 1278.77 523.38 1278.77 520.38 1278.77 C520.38 1279.43 520.38 1280.09 520.38 1280.77 C461.63 1280.77 402.89 1280.77 342.38 1280.77 C342.38 1280.11 342.38 1279.45 342.38 1278.77 C341.78 1278.67 341.18 1278.57 340.57 1278.47 C337.94 1277.63 337 1276.63 335.25 1274.52 C334.75 1273.94 334.25 1273.35 333.74 1272.75 C330.6 1268.2 330.12 1264.24 330.12 1258.76 C330.11 1257.74 330.11 1257.74 330.11 1256.69 C330.1 1254.43 330.1 1252.18 330.11 1249.93 C330.11 1248.35 330.11 1246.78 330.1 1245.21 C330.1 1241.92 330.1 1238.62 330.11 1235.33 C330.13 1231.12 330.12 1226.91 330.11 1222.69 C330.1 1219.45 330.1 1216.2 330.11 1212.95 C330.11 1211.4 330.11 1209.85 330.1 1208.29 C330.1 1206.12 330.11 1203.95 330.12 1201.78 C330.12 1199.92 330.12 1199.92 330.12 1198.03 C330.37 1194.82 331.09 1192.69 332.38 1189.77 C332.63 1187.79 332.88 1185.81 333.1 1183.82 C333.64 1179.81 334.82 1176.03 336.44 1172.33 C337.47 1169.51 337.78 1166.8 338.1 1163.82 C338.63 1159.89 339.77 1156.16 341.35 1152.53 C342.61 1149.15 343.22 1145.82 343.88 1142.27 C344.69 1137.83 345.71 1133.94 347.38 1129.77 C347.92 1127.28 348.41 1124.78 348.88 1122.27 C349.69 1117.83 350.71 1113.94 352.38 1109.77 C352.92 1107.28 353.41 1104.78 353.88 1102.27 C354.69 1097.83 355.71 1093.94 357.38 1089.77 C357.92 1087.28 358.41 1084.78 358.88 1082.27 C359.69 1077.83 360.71 1073.94 362.38 1069.77 C362.92 1067.28 363.41 1064.78 363.88 1062.27 C364.69 1057.85 365.59 1053.89 367.38 1049.77 C371.65 1038.24 367.77 1025.15 364.32 1013.88 C362.84 1008.99 361.81 1004.05 360.85 999.04 C360.67 998.12 360.49 997.21 360.31 996.27 C360.08 995.02 360.08 995.02 359.84 993.74 C359.56 991.78 359.56 991.78 358.38 990.77 C358.02 989.45 357.72 988.11 357.44 986.77 C357.26 985.97 357.09 985.16 356.91 984.33 C356.55 982.62 356.2 980.92 355.84 979.21 C355.66 978.4 355.49 977.6 355.31 976.77 C355.08 975.66 355.08 975.66 354.84 974.52 C354.53 972.76 354.53 972.76 353.38 971.77 C353.02 970.45 352.72 969.11 352.44 967.77 C352.26 966.97 352.09 966.16 351.91 965.33 C351.55 963.62 351.2 961.92 350.84 960.21 C350.66 959.4 350.49 958.6 350.31 957.77 C350.08 956.66 350.08 956.66 349.84 955.52 C349.53 953.76 349.53 953.76 348.38 952.77 C348.04 951.45 347.74 950.12 347.47 948.79 C346.44 943.97 345.16 939.25 343.81 934.52 C341.17 925.26 341.17 925.26 340.38 920.77 C339.38 921.1 338.39 921.43 337.38 921.77 C330.44 922.49 324.81 922.49 319.06 918.27 C312.88 912.77 310.29 907.08 308.38 899.14 C308.11 898.08 308.11 898.08 307.85 897 C306.68 892.19 305.64 887.37 304.77 882.49 C304.53 880.75 304.53 880.75 303.38 879.77 C303.02 878.47 302.72 877.15 302.44 875.83 C302.26 875.03 302.09 874.23 301.91 873.4 C301.19 869.85 300.5 866.3 299.84 862.74 C299.56 860.78 299.56 860.78 298.38 859.77 C298.02 858.47 297.72 857.15 297.44 855.83 C297.26 855.03 297.09 854.23 296.91 853.4 C296.19 849.85 295.5 846.3 294.84 842.74 C294.56 840.78 294.56 840.78 293.38 839.77 C293.33 837.77 293.33 835.77 293.38 833.77 C292.38 833.77 291.39 833.77 290.38 833.77 C290.38 833.11 290.38 832.45 290.38 831.77 C289.84 831.68 289.31 831.6 288.77 831.51 C285.51 830.5 282.99 828.79 280.12 826.96 C275.33 823.93 270.51 821.19 265.38 818.77 C265.38 818.11 265.38 817.45 265.38 816.77 C264.85 816.68 264.32 816.6 263.77 816.51 C260.5 815.5 257.95 813.79 255.06 811.96 C251.22 809.53 247.36 807.17 243.4 804.93 C237.96 801.81 232.59 798.57 227.21 795.37 C225.78 794.53 225.78 794.53 224.33 793.67 C223.48 793.16 222.62 792.65 221.74 792.13 C219.65 790.93 217.54 789.82 215.38 788.77 C215.38 788.11 215.38 787.45 215.38 786.77 C214.79 786.64 214.21 786.52 213.61 786.39 C210.72 785.59 208.3 784.23 205.67 782.8 C199.18 779.87 192.44 779.13 185.44 778.27 C179.66 777.56 174.08 776.76 168.45 775.26 C164.16 774.25 159.75 773.81 155.38 773.27 C149.62 772.56 144.06 771.76 138.46 770.26 C134.16 769.25 129.75 768.81 125.38 768.27 C118.89 767.47 112.7 766.42 106.38 764.77 C104.26 764.41 102.13 764.07 100 763.77 C97.79 763.44 95.58 763.1 93.38 762.77 C92.44 762.63 91.5 762.49 90.53 762.34 C83.39 761.11 78.08 758.45 73.38 752.77 C70.23 747.16 69.32 742.15 70.38 735.77 C71.86 731.28 73.64 726.97 75.55 722.64 C76.82 719.76 78.03 716.86 79.25 713.96 C79.86 712.52 79.86 712.52 80.49 711.06 C81.49 708.87 81.49 708.87 81.38 706.77 C80.67 706.5 79.96 706.24 79.24 705.96 C76.22 704.7 73.42 703.23 70.56 701.64 C69.1 700.84 69.1 700.84 67.61 700.01 C66.87 699.6 66.13 699.19 65.38 698.77 C65.38 698.11 65.38 697.45 65.38 696.77 C64.81 696.66 64.24 696.54 63.65 696.43 C61.1 695.69 59.19 694.61 56.93 693.22 C56.08 692.71 55.23 692.19 54.35 691.66 C53.03 690.85 53.03 690.85 51.69 690.02 C45.32 686.13 38.93 682.34 32.38 678.77 C32.41 679.49 32.44 680.21 32.47 680.95 C33.07 696.79 32.34 710.04 26.38 724.77 C24.46 729.75 22.67 734.76 21 739.83 C20.57 741.15 20.13 742.46 19.7 743.77 C19.37 744.77 19.37 744.77 19.03 745.78 C17.99 748.95 16.93 752.11 15.88 755.27 C15.46 756.51 15.05 757.74 14.62 759.02 C2.21 796.27 -10.21 833.52 -22.62 870.77 C-21.74 871.02 -20.85 871.26 -19.94 871.52 C-10.51 875.08 -4.11 884.09 0.4 892.74 C3.97 901.28 4.02 913.49 0.81 922.14 C0.05 923.71 -0.76 925.26 -1.62 926.77 C-2.08 927.57 -2.53 928.36 -2.99 929.18 C-7.61 936.79 -13 943.91 -18.23 951.09 C-21.41 955.45 -24.52 959.85 -27.62 964.27 C-32.29 970.9 -37.01 977.48 -41.77 984.04 C-45.42 989.09 -49.04 994.17 -52.62 999.27 C-57.28 1005.89 -62.01 1012.47 -66.76 1019.03 C-70.51 1024.2 -74.2 1029.41 -77.88 1034.64 C-94.73 1058.56 -94.73 1058.56 -102.62 1061.77 C-105.5 1062.04 -105.5 1062.04 -108.62 1062.02 C-109.66 1062.02 -110.69 1062.03 -111.75 1062.04 C-114.62 1061.77 -116.16 1061.18 -118.62 1059.77 C-120.96 1059.1 -123.29 1058.43 -125.62 1057.77 C-126.96 1057.28 -128.3 1056.78 -129.62 1056.27 C-132.13 1055.31 -134.54 1054.51 -137.12 1053.77 C-140.39 1052.84 -143.49 1051.71 -146.66 1050.49 C-148.45 1049.83 -150.29 1049.29 -152.12 1048.77 C-155.4 1047.83 -158.49 1046.7 -161.66 1045.48 C-163.41 1044.85 -165.21 1044.33 -167 1043.83 C-177.2 1040.84 -183.43 1037.71 -189.06 1028.39 C-191.99 1014.73 -184.65 1002.8 -179 990.75 C-177.41 987.31 -176 983.82 -174.61 980.29 C-171.81 973.14 -168.81 966.1 -165.56 959.14 C-163.43 954.57 -161.45 949.98 -159.61 945.29 C-156.81 938.14 -153.81 931.1 -150.56 924.14 C-148.43 919.57 -146.45 914.98 -144.61 910.29 C-141.34 901.95 -137.76 893.78 -133.96 885.68 C-131.85 881.09 -130.38 877.57 -130.37 872.46 C-130.37 870.87 -130.37 870.87 -130.36 869.26 C-130.36 868.1 -130.37 866.95 -130.37 865.76 C-130.37 864.53 -130.37 863.29 -130.36 862.02 C-130.36 858.61 -130.36 855.19 -130.37 851.77 C-130.37 848.09 -130.36 844.4 -130.36 840.72 C-130.35 834.33 -130.35 827.94 -130.35 821.56 C-130.35 812.31 -130.34 803.07 -130.33 793.83 C-130.3 778.82 -130.28 763.81 -130.27 748.8 C-130.27 747.91 -130.26 747.01 -130.26 746.08 C-130.25 733.34 -130.25 720.59 -130.24 707.85 C-130.24 706.95 -130.24 706.05 -130.24 705.13 C-130.24 704.23 -130.24 703.33 -130.24 702.41 C-130.24 687.46 -130.22 672.51 -130.19 657.57 C-130.17 648.35 -130.16 639.13 -130.17 629.91 C-130.18 623.59 -130.17 617.27 -130.15 610.96 C-130.14 607.31 -130.14 603.67 -130.15 600.02 C-130.17 596.07 -130.15 592.12 -130.13 588.16 C-130.14 587.01 -130.15 585.87 -130.16 584.68 C-130.08 576.76 -128.84 571.4 -123.44 565.31 C-122.7 564.68 -121.95 564.05 -121.19 563.39 C-120.45 562.75 -119.71 562.1 -118.94 561.43 C-116.58 559.73 -114.37 558.73 -111.62 557.77 C-111.62 557.11 -111.62 556.45 -111.62 555.77 C-110 554.35 -110 554.35 -107.76 552.73 C-106.95 552.15 -106.15 551.57 -105.32 550.97 C-104.05 550.07 -104.05 550.07 -102.75 549.14 C-101.91 548.53 -101.07 547.92 -100.2 547.29 C-93.89 542.77 -93.89 542.77 -91.62 542.77 C-91.62 542.11 -91.62 541.45 -91.62 540.77 C-90 539.35 -90 539.35 -87.76 537.73 C-86.95 537.15 -86.15 536.57 -85.32 535.97 C-84.05 535.07 -84.05 535.07 -82.75 534.14 C-81.91 533.53 -81.07 532.92 -80.2 532.29 C-73.89 527.77 -73.89 527.77 -71.62 527.77 C-71.62 527.11 -71.62 526.45 -71.62 525.77 C-70 524.35 -70 524.35 -67.76 522.73 C-66.95 522.15 -66.15 521.57 -65.32 520.97 C-64.05 520.07 -64.05 520.07 -62.75 519.14 C-61.91 518.53 -61.07 517.92 -60.2 517.29 C-53.89 512.77 -53.89 512.77 -51.62 512.77 C-51.62 512.11 -51.62 511.45 -51.62 510.77 C-49.57 509.18 -47.53 507.71 -45.38 506.27 C-44.79 505.87 -44.2 505.46 -43.6 505.05 C-35.49 499.53 -35.49 499.53 -30.04 499.49 C-29.12 499.48 -28.2 499.47 -27.26 499.45 C-26.26 499.45 -25.26 499.45 -24.24 499.45 C-23.18 499.44 -22.12 499.43 -21.03 499.42 C-17.53 499.39 -14.02 499.37 -10.52 499.36 C-8.07 499.35 -5.63 499.34 -3.18 499.33 C1.95 499.31 7.09 499.3 12.22 499.29 C18.77 499.28 25.31 499.23 31.85 499.17 C36.91 499.14 41.96 499.13 47.02 499.12 C49.43 499.12 51.84 499.1 54.25 499.07 C68.32 498.93 79.58 499.61 92.38 505.77 C94.43 506.63 96.5 507.49 98.56 508.33 C99.51 508.73 100.46 509.14 101.44 509.55 C105.69 511.32 110 512.95 114.3 514.59 C117.76 515.92 121.21 517.29 124.66 518.68 C127.37 519.77 130.09 520.85 132.81 521.93 C138.06 524.02 143.29 526.14 148.5 528.33 C152.6 530.05 156.72 531.69 160.88 533.27 C170.5 536.95 179.83 540.87 188.98 545.63 C191.23 546.91 191.23 546.91 193.38 546.77 C189.95 540.38 186.43 534.1 182.57 527.96 C181.43 525.87 180.83 524.1 180.38 521.77 C179.71 521.77 179.06 521.77 178.38 521.77 C176.38 517.77 174.38 513.77 172.38 509.77 C172.02 509.18 171.66 508.59 171.3 507.98 C170.06 505.02 170.13 502.57 170.13 499.36 C170.13 498.07 170.13 496.77 170.12 495.43 C170.13 494.02 170.14 492.61 170.14 491.2 C170.15 489.75 170.15 488.3 170.15 486.85 C170.15 483.82 170.16 480.78 170.17 477.75 C170.19 473.86 170.19 469.96 170.19 466.07 C170.19 463.08 170.19 460.09 170.2 457.1 C170.21 455.66 170.21 454.23 170.21 452.79 C170.21 450.79 170.22 448.79 170.23 446.79 C170.23 445.65 170.24 444.51 170.24 443.33 C170.38 440.77 170.38 440.77 171.38 439.77 C177.64 439.77 183.91 439.77 190.38 439.77 C190.38 427.23 190.38 414.69 190.38 401.77 C186.61 401.78 182.85 401.79 178.98 401.8 C166.57 401.83 154.15 401.86 141.74 401.87 C134.21 401.88 126.69 401.9 119.16 401.92 C112.6 401.94 106.04 401.95 99.47 401.96 C96 401.96 92.53 401.97 89.05 401.98 C85.17 402 81.3 402 77.42 402 C76.27 402 75.12 402.01 73.93 402.02 C72.34 402.01 72.34 402.01 70.72 402.01 C69.35 402.01 69.35 402.01 67.94 402.02 C65.1 401.74 62.99 400.9 60.38 399.77 C57.88 399.23 55.38 398.73 52.88 398.27 C48.43 397.45 44.55 396.44 40.38 394.77 C37.88 394.23 35.38 393.73 32.88 393.27 C28.43 392.45 24.55 391.44 20.38 389.77 C17.88 389.23 15.38 388.73 12.88 388.27 C8.44 387.45 4.53 386.48 0.38 384.77 C-0.84 384.65 -2.06 384.52 -3.31 384.39 C-12.12 383.46 -20.73 379.36 -26.32 372.52 C-28.52 369.56 -30.19 366.36 -31.88 363.08 C-32.26 362.35 -32.64 361.61 -33.03 360.86 C-36.68 353.79 -40.06 346.61 -43.44 339.41 C-48.27 329.12 -53.45 319.02 -58.83 309.01 C-61.52 303.97 -64.18 298.93 -66.62 293.77 C-66.94 293.13 -67.26 292.5 -67.59 291.84 C-71.43 283.27 -70 273.66 -68.13 264.75 C-67.3 259.85 -67.12 254.91 -66.87 249.96 C-66.62 246.77 -66.62 246.77 -65.62 243.77 C-65.43 242.33 -65.26 240.88 -65.12 239.43 C-65.04 238.59 -64.96 237.76 -64.88 236.9 C-64.79 236.03 -64.71 235.16 -64.62 234.27 C-64.46 232.55 -64.29 230.83 -64.12 229.11 C-64.02 227.97 -64.02 227.97 -63.91 226.81 C-63.62 224.77 -63.62 224.77 -62.62 221.77 C-62.42 219.27 -62.25 216.78 -62.12 214.27 C-61.76 207.17 -61.76 207.17 -60.62 203.77 C-60.43 202.33 -60.26 200.88 -60.12 199.43 C-60.04 198.59 -59.96 197.76 -59.88 196.9 C-59.79 196.03 -59.71 195.16 -59.62 194.27 C-59.46 192.55 -59.29 190.83 -59.12 189.11 C-59.05 188.35 -58.98 187.59 -58.91 186.81 C-58.62 184.77 -58.62 184.77 -57.62 181.77 C-57.44 179.67 -57.3 177.56 -57.19 175.46 C-56.72 168.15 -55.76 161 -54.62 153.77 C-55.25 153.99 -55.88 154.2 -56.53 154.43 C-67.34 157.94 -77 157.38 -87.39 152.46 C-89.51 151.28 -91.58 150.07 -93.62 148.77 C-93.62 148.11 -93.62 147.45 -93.62 146.77 C-94.22 146.51 -94.82 146.25 -95.43 145.98 C-102.7 141.98 -106.74 133.49 -108.97 125.86 C-110.27 119.72 -110.1 113.45 -110.09 107.2 C-110.1 105.71 -110.11 104.22 -110.12 102.73 C-110.13 99.62 -110.13 96.51 -110.13 93.4 C-110.12 89.44 -110.15 85.47 -110.19 81.51 C-110.22 78.43 -110.22 75.36 -110.22 72.29 C-110.22 70.83 -110.23 69.36 -110.25 67.9 C-110.33 59.82 -110.34 53.03 -104.62 46.77 C-100.48 42.77 -96.01 40.12 -90.94 37.52 C-90.2 37.14 -89.47 36.75 -88.71 36.36 C-82.45 33.12 -76.1 30.12 -69.71 27.15 C-63.72 24.34 -57.88 21.3 -52.06 18.15 C-45.91 14.86 -39.64 11.87 -33.31 8.95 C-32.2 8.44 -32.2 8.44 -31.06 7.91 C-30.36 7.59 -29.66 7.27 -28.93 6.94 C-26.65 5.86 -26.65 5.86 -24.84 4.49 C-17.31 -0.72 -8.77 -0.01 0 0 Z " fill="#000000" transform="translate(408.625,-0.76953125)"/>
<path d="M0 0 C2.1 2.87 3.06 6.03 4.13 9.39 C4.38 10.14 4.63 10.89 4.89 11.66 C5.71 14.15 6.52 16.64 7.33 19.12 C7.9 20.85 8.47 22.58 9.04 24.31 C10.55 28.87 12.04 33.43 13.54 37.99 C15.92 45.28 18.32 52.57 20.73 59.86 C21.56 62.4 22.4 64.94 23.23 67.48 C23.74 69.05 24.26 70.62 24.77 72.19 C25 72.89 25.23 73.59 25.46 74.32 C28.16 82.92 28.16 82.92 34.51 88.79 C35.21 89.19 35.9 89.59 36.61 90 C39.6 91.59 41.38 92.12 44.77 92.19 C45.68 92.21 46.58 92.23 47.52 92.25 C48.52 92.27 49.52 92.28 50.55 92.3 C52.12 92.33 52.12 92.33 53.73 92.36 C63.51 92.55 73.3 92.65 83.08 92.74 C89.64 92.79 96.19 92.87 102.75 93.02 C142.81 94.7 142.81 94.7 178.45 78.98 C183.67 75.51 187.42 74.46 193.66 75.41 C199.23 76.54 204.73 77.89 210.23 79.32 C211.53 79.66 212.83 79.99 214.13 80.32 C217.53 81.19 220.92 82.07 224.31 82.94 C227.09 83.66 229.87 84.37 232.65 85.08 C238.38 86.55 244.12 88.02 249.85 89.51 C251.37 89.9 251.37 89.9 252.92 90.3 C254.78 90.8 256.62 91.37 258.45 91.98 C261.13 96.92 262.39 102.7 263.87 108.1 C264.12 109.02 264.37 109.93 264.63 110.87 C265.13 112.7 265.61 114.53 266.08 116.37 C268.82 126.51 273.75 133.96 282.45 139.98 C309.97 155.18 349.42 157.09 379.42 149.2 C385.52 147.37 391.5 145.23 397.45 142.98 C400.09 141.99 402.73 141 405.45 139.98 C405.78 150.54 406.11 161.1 406.45 171.98 C419.65 172.31 432.85 172.64 446.45 172.98 C446.45 170.01 446.45 167.04 446.45 163.98 C458.05 167.56 469.24 172.43 480.24 177.53 C485.71 180 491.24 182.33 496.75 184.68 C500.73 186.38 504.7 188.08 508.65 189.85 C512 191.36 515.38 192.8 518.77 194.22 C521.41 195.33 524.04 196.44 526.67 197.56 C528.03 198.13 529.39 198.7 530.75 199.27 C532.75 200.1 534.73 200.94 536.72 201.79 C537.89 202.28 539.06 202.77 540.27 203.28 C544.04 205.29 545.97 206.46 548.45 209.98 C549.67 214.52 550.23 219.14 550.8 223.8 C550.99 225.18 551.18 226.56 551.37 227.95 C551.86 231.59 552.33 235.24 552.79 238.88 C553.26 242.53 553.75 246.16 554.23 249.8 C554.8 254.02 555.36 258.25 555.91 262.47 C557 270.86 558.19 279.22 559.7 287.55 C560.28 290.96 560.69 293.69 559.45 296.98 C559.45 296.32 559.45 295.66 559.45 294.98 C558.72 294.71 557.98 294.44 557.22 294.16 C554.58 293.04 552.51 291.8 550.19 290.14 C549.39 289.58 548.59 289.02 547.77 288.44 C546.92 287.83 546.07 287.23 545.2 286.6 C543.87 285.66 543.87 285.66 542.51 284.7 C539.82 282.8 537.14 280.89 534.45 278.98 C531.68 277.02 528.91 275.06 526.14 273.1 C525.46 272.63 524.79 272.15 524.09 271.66 C517.15 266.75 510.17 261.9 503.18 257.05 C490.12 247.97 477.08 238.85 464.1 229.66 C457.09 224.71 450.05 219.82 443 214.93 C438.44 211.77 433.89 208.59 429.38 205.36 C428.61 204.81 427.83 204.26 427.04 203.69 C425.61 202.67 424.19 201.64 422.77 200.61 C417.48 196.82 413.29 194.69 406.64 194.6 C405.66 194.58 404.69 194.55 403.68 194.52 C396.18 195.59 390.43 200.25 384.64 204.85 C383.15 206.02 381.66 207.18 380.17 208.34 C379.4 208.93 378.63 209.53 377.83 210.15 C373.84 213.22 369.77 216.19 365.7 219.17 C359.3 223.86 352.96 228.63 346.68 233.5 C343.03 236.32 339.33 239.09 335.64 241.85 C334.65 242.6 334.65 242.6 333.63 243.37 C330.13 246.01 326.6 248.6 323.02 251.13 C322.3 251.65 321.57 252.17 320.83 252.7 C319.46 253.69 318.07 254.66 316.68 255.62 C310.91 259.8 308.4 264.55 306.51 271.35 C306.35 280.88 310.84 287.62 316.19 295.18 C318.64 298.67 320.97 302.24 323.33 305.79 C324.36 307.35 325.4 308.9 326.44 310.46 C332.09 318.94 332.09 318.94 333.35 320.82 C334.16 322.05 334.98 323.27 335.8 324.49 C337.92 327.64 339.99 330.82 342.01 334.03 C347.74 343.04 352.34 349.92 363.15 352.55 C367.13 353.29 371.07 353.28 375.1 353.28 C376 353.28 376.9 353.29 377.83 353.29 C379.72 353.3 381.61 353.3 383.51 353.3 C386.38 353.29 389.25 353.32 392.12 353.34 C393.97 353.34 395.82 353.34 397.67 353.34 C398.51 353.35 399.36 353.36 400.23 353.37 C405.45 353.33 409.6 352.51 414.44 350.53 C416.88 349.86 418.13 349.98 420.45 350.98 C421.78 353.58 422.83 356.01 423.83 358.73 C424.44 360.3 425.05 361.88 425.67 363.45 C425.97 364.23 426.27 365.01 426.59 365.81 C427.72 368.65 429.01 371.41 430.33 374.17 C433.59 381.1 436.44 388.18 439.29 395.29 C439.66 396.2 440.02 397.1 440.4 398.04 C440.72 398.85 441.05 399.65 441.38 400.49 C442.45 403.09 442.45 403.09 444.06 405.87 C445.65 409.41 445.8 411.83 445.75 415.69 C445.74 416.93 445.73 418.18 445.72 419.46 C445.68 421.39 445.68 421.39 445.64 423.35 C445.63 424.66 445.61 425.97 445.6 427.32 C445.56 430.54 445.51 433.76 445.45 436.98 C441.21 438.46 437 439.62 432.62 440.6 C431.96 440.75 431.3 440.9 430.63 441.05 C424.58 442.41 418.52 443.7 412.46 444.98 C408.4 445.84 404.35 446.71 400.31 447.64 C367.61 455.07 367.61 455.07 356.13 448.24 C355.53 447.86 354.94 447.48 354.33 447.1 C350.87 445.04 347.11 443.7 343.37 442.23 C341.85 441.6 340.32 440.96 338.8 440.33 C336.49 439.37 334.19 438.41 331.88 437.46 C329.59 436.51 327.29 435.55 325 434.6 C324.33 434.33 323.67 434.05 322.98 433.77 C318.68 431.97 314.44 430.06 310.21 428.09 C303.77 425.1 297.27 422.3 290.72 419.54 C288.35 418.53 285.98 417.53 283.6 416.52 C279.92 414.96 276.24 413.41 272.56 411.85 C268.97 410.33 265.38 408.81 261.78 407.29 C260.7 406.83 259.61 406.37 258.49 405.9 C238.62 397.47 238.62 397.47 233.45 388.98 C232.7 387.76 232.7 387.76 231.92 386.52 C230.29 383.84 228.71 381.13 227.14 378.42 C225.99 376.44 224.83 374.47 223.67 372.5 C223.12 371.54 222.56 370.59 221.99 369.61 C220.04 366.28 218.07 362.97 216.08 359.67 C215.74 359.1 215.4 358.54 215.05 357.95 C214.3 356.71 213.55 355.46 212.8 354.22 C209.19 348.22 205.59 342.21 201.99 336.21 C199.17 331.51 196.35 326.81 193.52 322.11 C193.1 321.41 192.68 320.71 192.25 319.99 C191.49 318.73 190.73 317.47 189.98 316.22 C187.44 312 186.33 309.65 186.26 304.72 C186.24 303.07 186.24 303.07 186.21 301.39 C186.19 299.61 186.19 299.61 186.17 297.79 C186.15 296.57 186.13 295.36 186.12 294.1 C186.04 288.88 185.97 283.66 185.9 278.44 C185.85 274.64 185.79 270.84 185.73 267.04 C185.71 265.25 185.71 265.25 185.69 263.43 C185.67 261.79 185.67 261.79 185.64 260.11 C185.63 259.14 185.62 258.17 185.6 257.17 C185.7 255 185.7 255 184.45 253.98 C181.62 253.77 178.79 253.6 175.95 253.48 C167.59 253.11 167.59 253.11 166.45 251.98 C166.33 249.58 166.28 247.21 166.26 244.81 C166.25 243.69 166.25 243.69 166.24 242.54 C166.22 240.91 166.21 239.28 166.19 237.64 C166.17 235.06 166.14 232.49 166.12 229.91 C166.05 223.5 165.99 217.09 165.93 210.68 C165.88 205.27 165.82 199.86 165.76 194.45 C165.73 191.9 165.71 189.36 165.69 186.81 C165.68 185.25 165.66 183.7 165.64 182.15 C165.64 181.43 165.63 180.72 165.63 179.98 C165.87 176.7 165.87 176.7 164.45 173.98 C163.05 173.91 161.65 173.9 160.25 173.93 C159.33 173.94 158.42 173.96 157.49 173.97 C155.97 174 155.97 174 154.43 174.03 C152.23 174.06 150.03 174.09 147.83 174.12 C146.65 174.14 145.47 174.16 144.26 174.18 C43.21 175.55 43.21 175.55 6.33 165.23 C5.67 165.05 5.02 164.87 4.35 164.68 C-19.89 157.95 -19.89 157.95 -25.2 149.29 C-25.68 148.32 -26.16 147.35 -26.65 146.35 C-27.21 145.25 -27.76 144.14 -28.33 143 C-28.91 141.82 -29.49 140.64 -30.09 139.42 C-30.71 138.18 -31.32 136.94 -31.94 135.71 C-33.55 132.47 -35.15 129.22 -36.75 125.97 C-38.06 123.32 -39.37 120.68 -40.69 118.04 C-42.26 114.87 -43.83 111.71 -45.4 108.54 C-45.7 107.94 -46 107.34 -46.3 106.73 C-47.15 105.02 -47.99 103.32 -48.83 101.61 C-49.31 100.64 -49.79 99.67 -50.28 98.67 C-53.88 91.03 -53.88 91.03 -53.29 86.09 C-53.18 85.13 -53.07 84.16 -52.95 83.17 C-52.82 82.12 -52.69 81.06 -52.55 79.98 C-52.42 78.86 -52.28 77.74 -52.15 76.59 C-51.69 72.78 -51.22 68.99 -50.74 65.19 C-50.56 63.79 -50.38 62.39 -50.21 60.99 C-49.75 57.33 -49.29 53.68 -48.83 50.02 C-48.36 46.31 -47.9 42.6 -47.43 38.9 C-46.75 33.46 -46.06 28.02 -45.38 22.59 C-44.77 17.72 -44.16 12.85 -43.55 7.98 C-36.19 5.8 -28.74 4.22 -21.23 2.67 C-19.6 2.33 -17.97 1.99 -16.34 1.63 C-13.98 1.12 -11.62 0.63 -9.25 0.15 C-8.52 -0.01 -7.79 -0.18 -7.04 -0.34 C-2.03 -1.34 -2.03 -1.34 0 0 Z " fill="#FBB787" transform="translate(433.54766845703125,186.020263671875)"/>
<path d="M0 0 C3.47 -0.02 6.95 -0.05 10.42 -0.1 C14.67 -0.16 18.92 -0.19 23.17 -0.2 C24.77 -0.21 26.37 -0.23 27.96 -0.26 C39.92 -0.47 49.38 1.82 60.41 6.41 C61.52 6.86 62.63 7.31 63.78 7.78 C65.66 8.55 67.54 9.33 69.41 10.13 C75.3 12.64 81.27 14.97 87.22 17.34 C88.48 17.85 89.75 18.35 91.01 18.86 C91.64 19.11 92.26 19.36 92.91 19.61 C94.17 20.12 95.42 20.62 96.68 21.12 C99.97 22.44 103.28 23.74 106.59 25.01 C107.62 25.41 107.62 25.41 108.66 25.82 C110.56 26.55 112.46 27.28 114.37 28.01 C117.06 29.25 118.57 30.14 120.41 32.41 C118.11 39.98 114.96 47.07 111.65 54.25 C110.07 57.7 108.49 61.16 106.92 64.62 C106.61 65.29 106.31 65.97 105.99 66.67 C103.55 72.04 101.22 77.45 98.97 82.91 C96.27 89.43 93.38 95.82 90.35 102.21 C86.15 111.17 82.32 120.31 78.41 129.41 C74.88 129.41 73.5 128.55 70.45 126.84 C69.46 126.29 68.48 125.74 67.47 125.17 C62.54 122.33 57.65 119.41 52.78 116.47 C50.6 115.15 48.41 113.83 46.22 112.51 C45.11 111.84 43.99 111.17 42.84 110.47 C39.38 108.39 35.91 106.31 32.43 104.23 C31.31 103.56 30.18 102.89 29.02 102.19 C26.87 100.9 24.71 99.62 22.55 98.33 C21.57 97.74 20.59 97.15 19.58 96.55 C18.73 96.04 17.87 95.53 16.99 95 C16.14 94.47 15.28 93.95 14.41 93.41 C13.33 92.9 12.25 92.39 11.13 91.87 C8.06 89.09 7.97 88.58 7.65 84.65 C7.62 82.69 7.61 80.73 7.64 78.77 C7.63 77.73 7.61 76.7 7.6 75.63 C7.57 72.33 7.58 69.02 7.59 65.72 C7.58 62.4 7.56 59.09 7.53 55.77 C7.52 53.71 7.51 51.64 7.52 49.58 C7.52 48.65 7.52 47.73 7.52 46.77 C7.52 45.95 7.52 45.13 7.52 44.28 C7.61 42.39 7.61 42.39 6.41 41.41 C3.68 41.3 0.98 41.27 -1.75 41.27 C-2.57 41.27 -3.38 41.27 -4.23 41.27 C-5.96 41.27 -7.69 41.27 -9.42 41.27 C-12.08 41.28 -14.74 41.27 -17.4 41.27 C-19.08 41.27 -20.76 41.27 -22.44 41.27 C-23.24 41.27 -24.04 41.27 -24.86 41.27 C-28.53 40.93 -28.53 40.93 -31.59 42.41 C-31.67 43.86 -31.69 45.31 -31.67 46.76 C-31.66 47.7 -31.66 48.65 -31.65 49.62 C-31.63 50.66 -31.62 51.7 -31.61 52.78 C-31.59 55.05 -31.57 57.32 -31.55 59.59 C-31.54 60.8 -31.53 62.01 -31.52 63.26 C-31.46 70.42 -31.46 77.57 -31.45 84.72 C-31.44 92.26 -31.41 99.79 -31.32 107.33 C-30.96 137.62 -30.99 164.92 -43.16 193.01 C-45.13 197.67 -46.64 202.41 -48.12 207.23 C-48.59 208.72 -49.07 210.21 -49.56 211.7 C-49.79 212.42 -50.02 213.13 -50.25 213.87 C-55.39 229.84 -60.73 245.75 -66.2 261.62 C-69.43 271 -72.59 280.41 -75.67 289.85 C-76.35 291.93 -77.04 294.02 -77.72 296.1 C-78.71 299.14 -79.7 302.18 -80.68 305.22 C-81.58 308.02 -82.5 310.82 -83.41 313.61 C-83.68 314.45 -83.94 315.28 -84.21 316.14 C-85.64 320.45 -86.84 323.58 -90.59 326.41 C-92.67 327.41 -92.67 327.41 -94.85 328.11 C-96.04 328.49 -96.04 328.49 -97.25 328.89 C-98.06 329.14 -98.88 329.39 -99.72 329.66 C-100.95 330.06 -100.95 330.06 -102.21 330.47 C-108.25 332.41 -108.25 332.41 -110.59 332.41 C-111.79 330.01 -111.73 328.49 -111.75 325.81 C-111.76 324.84 -111.77 323.87 -111.78 322.87 C-111.79 321.79 -111.79 320.71 -111.8 319.6 C-111.81 318.46 -111.82 317.33 -111.83 316.15 C-111.86 312.98 -111.88 309.82 -111.9 306.65 C-111.92 303.93 -111.94 301.22 -111.96 298.5 C-112.16 272.75 -112.27 246.99 -112.35 221.24 C-112.36 217.88 -112.37 214.53 -112.38 211.17 C-112.39 210.34 -112.39 209.51 -112.39 208.65 C-112.44 195.15 -112.53 181.66 -112.65 168.16 C-112.77 154.31 -112.84 140.45 -112.86 126.59 C-112.87 118.81 -112.91 111.04 -113 103.26 C-113.08 96.63 -113.11 90 -113.09 83.37 C-113.08 79.99 -113.1 76.62 -113.16 73.24 C-113.52 51.86 -113.52 51.86 -108.75 46.65 C-105.66 43.99 -102.26 42.19 -98.59 40.41 C-97.12 39.33 -95.68 38.23 -94.27 37.08 C-86.07 30.77 -77.78 24.57 -69.43 18.45 C-63.58 14.15 -57.8 9.76 -52.06 5.3 C-40.01 -3.93 -14.85 0.07 0 0 Z " fill="#FBB787" transform="translate(431.593017578125,538.594970703125)"/>
<path d="M0 0 C5.92 0.58 10.88 2.92 16.25 5.31 C18.05 6.1 19.84 6.89 21.64 7.68 C22.54 8.07 23.43 8.46 24.35 8.86 C27.67 10.29 31.02 11.62 34.38 12.95 C39.41 14.96 44.39 17.08 49.38 19.19 C50.53 19.67 51.68 20.16 52.87 20.66 C59.37 23.42 65.83 26.25 72.25 29.19 C83.55 34.35 95.02 39.11 106.48 43.89 C114.11 47.08 121.72 50.29 129.26 53.7 C130.52 54.27 131.79 54.83 133.06 55.4 C135.35 56.43 137.64 57.48 139.92 58.55 C149.81 62.96 158.47 62.93 168.88 60.44 C173.62 59.3 177.25 58.62 182 60 C184.02 63.03 184.86 65.57 186 69 C186.52 69.97 187.03 70.94 187.56 71.94 C189.15 75.33 189.63 78.29 190 82 C190.66 82 191.32 82 192 82 C192.19 82.77 192.39 83.54 192.59 84.34 C192.85 85.34 193.11 86.34 193.38 87.38 C193.63 88.37 193.89 89.37 194.15 90.4 C194.82 93.13 194.82 93.13 197 95 C198.23 97.46 199.05 99.23 198.88 102 C197.58 104.96 195.75 105.4 192.81 106.62 C191.82 107.04 190.83 107.46 189.81 107.89 C186.9 109.04 184 110.11 181 111 C181.64 114.77 182.72 118.06 184.19 121.59 C184.63 122.67 185.08 123.76 185.54 124.87 C186.02 126.03 186.5 127.18 187 128.38 C188 130.8 189 133.23 189.99 135.66 C190.24 136.27 190.5 136.88 190.75 137.51 C193.26 143.61 195.71 149.74 198.12 155.88 C198.5 156.82 198.88 157.77 199.27 158.75 C199.62 159.64 199.96 160.52 200.32 161.43 C200.62 162.2 200.92 162.96 201.23 163.75 C202.05 166.15 202.56 168.51 203 171 C187.19 175.56 171.23 179.5 155.26 183.47 C151.02 184.52 146.77 185.58 142.53 186.64 C139.11 187.49 135.69 188.34 132.27 189.19 C126.43 190.64 120.6 192.1 114.78 193.61 C113.87 193.85 112.95 194.09 112 194.33 C110.36 194.76 108.72 195.19 107.09 195.63 C102.65 196.78 98.62 197.46 94 197 C91.5 195.22 90.69 193.48 89.08 190.78 C85.26 185.37 79.4 182.68 73.75 179.5 C72.54 178.8 71.33 178.1 70.12 177.4 C67.63 175.96 65.14 174.53 62.64 173.1 C57.17 169.96 51.78 166.7 46.38 163.44 C44.31 162.2 42.25 160.96 40.19 159.72 C38.13 158.48 36.06 157.24 34 156 C26.69 151.6 19.37 147.21 12.05 142.83 C8.99 141 5.94 139.15 2.89 137.31 C0.95 136.14 -0.99 134.98 -2.94 133.81 C-3.81 133.28 -4.68 132.76 -5.57 132.21 C-15.96 126.01 -25.69 123.2 -37.62 121.25 C-39.56 120.92 -39.56 120.92 -41.54 120.58 C-44.69 120.04 -47.84 119.52 -51 119 C-52.38 114.87 -50.73 112.49 -49 108.75 C-48.68 108.03 -48.35 107.31 -48.02 106.57 C-45.72 101.48 -43.34 96.43 -40.96 91.37 C-36.41 81.66 -32.12 71.82 -27.78 62.02 C-24.48 54.57 -21.18 47.13 -17.88 39.69 C-17.53 38.92 -17.19 38.15 -16.84 37.36 C-11.3 24.88 -5.69 12.42 0 0 Z " fill="#FA5A5A" transform="translate(645,616)"/>
<path d="M0 0 C1.29 11.19 2.58 22.38 3.86 33.57 C3.94 34.26 4.02 34.95 4.1 35.66 C4.43 38.56 4.76 41.46 5.09 44.36 C6.24 54.36 7.39 64.36 8.55 74.36 C9.39 81.66 10.23 88.97 11.07 96.28 C11.59 100.77 12.1 105.26 12.63 109.76 C13.13 114.02 13.62 118.29 14.1 122.56 C14.28 124.14 14.47 125.72 14.65 127.3 C14.91 129.48 15.16 131.65 15.4 133.83 C15.54 135.05 15.68 136.27 15.83 137.53 C16.14 143.71 15.03 148.56 12.27 154.07 C11.69 155.24 11.12 156.4 10.52 157.61 C9.87 158.88 9.23 160.16 8.58 161.43 C7.91 162.79 7.23 164.15 6.55 165.5 C4.72 169.18 2.88 172.84 1.03 176.51 C-0.9 180.35 -2.82 184.19 -4.74 188.04 C-7.97 194.49 -11.21 200.93 -14.45 207.38 C-18.19 214.83 -21.93 222.29 -25.66 229.75 C-29.64 237.7 -33.62 245.64 -37.6 253.58 C-38.75 255.87 -39.89 258.16 -41.04 260.45 C-42.84 264.04 -44.64 267.63 -46.45 271.22 C-47.11 272.54 -47.78 273.86 -48.44 275.18 C-49.34 276.98 -50.24 278.77 -51.15 280.57 C-51.65 281.57 -52.16 282.58 -52.68 283.62 C-54 286 -54 286 -56 288 C-58.06 288.23 -58.06 288.23 -60.57 288.2 C-61.47 288.19 -62.36 288.18 -63.29 288.18 C-64.22 288.16 -65.16 288.14 -66.12 288.12 C-67.07 288.12 -68.01 288.11 -68.99 288.1 C-71.33 288.07 -73.66 288.04 -76 288 C-77.19 284.52 -76.8 282.23 -75.9 278.7 C-75.63 277.63 -75.36 276.56 -75.08 275.45 C-74.78 274.28 -74.47 273.1 -74.16 271.89 C-73.68 269.99 -73.2 268.09 -72.72 266.19 C-72.2 264.14 -71.67 262.1 -71.15 260.05 C-70.05 255.79 -68.97 251.51 -67.9 247.24 C-66.38 241.24 -64.87 235.24 -63.34 229.25 C-60.08 216.38 -56.82 203.5 -53.61 190.62 C-52.55 186.37 -51.48 182.13 -50.4 177.88 C-49.57 174.61 -48.75 171.32 -47.94 168.04 C-47.64 166.88 -47.34 165.72 -47.03 164.52 C-44.53 154.33 -44.4 145.26 -46.5 135.01 C-46.66 134.2 -46.82 133.39 -46.98 132.55 C-47.5 129.93 -48.03 127.31 -48.56 124.69 C-48.93 122.84 -49.3 121 -49.67 119.16 C-54.02 97.51 -59.16 76.08 -64.62 54.69 C-64.81 53.97 -64.99 53.26 -65.18 52.52 C-67.41 43.8 -69.77 35.14 -72.44 26.55 C-73.47 23.17 -74 20.57 -74 17 C-64.88 14.35 -55.73 11.84 -46.52 9.51 C-44.7 9.05 -44.7 9.05 -42.85 8.58 C-40.31 7.94 -37.77 7.3 -35.24 6.66 C-31.99 5.84 -28.75 5.02 -25.51 4.19 C-22.39 3.39 -19.27 2.61 -16.15 1.82 C-14.99 1.53 -13.83 1.23 -12.63 0.92 C-11.56 0.65 -10.48 0.38 -9.37 0.11 C-8.43 -0.13 -7.49 -0.37 -6.51 -0.62 C-3.96 -1.01 -2.42 -0.83 0 0 Z " fill="#FCB888" transform="translate(863,891)"/>
<path d="M0 0 C4.82 0.48 7.85 2.81 11.56 5.69 C12.9 6.7 14.24 7.71 15.59 8.71 C16.3 9.25 17.01 9.78 17.75 10.33 C21.67 13.24 25.68 16.02 29.69 18.81 C30.53 19.4 31.37 19.99 32.24 20.59 C33.97 21.8 35.69 23 37.42 24.2 C42.44 27.7 47.45 31.21 52.46 34.72 C56.85 37.8 61.25 40.87 65.67 43.92 C67.05 44.88 67.05 44.88 68.47 45.86 C70.25 47.1 72.03 48.33 73.82 49.56 C74.61 50.11 75.41 50.66 76.23 51.23 C76.94 51.72 77.64 52.21 78.37 52.71 C80 54 80 54 81 56 C81.09 58.19 81.12 60.37 81.11 62.56 C81.11 63.25 81.11 63.93 81.11 64.63 C81.11 66.85 81.11 69.07 81.1 71.29 C81.1 72.66 81.1 74.03 81.09 75.39 C81.09 80.47 81.08 85.55 81.06 90.62 C81.04 101.97 81.02 113.31 81 125 C52.62 125 24.24 125 -5 125 C-5 124.34 -5 123.68 -5 123 C-5.66 123 -6.32 123 -7 123 C-11.03 113.99 -15.04 104.98 -18.79 95.85 C-20.12 92.72 -21.55 89.64 -23 86.56 C-25.5 81.22 -27.64 75.81 -29.7 70.28 C-31.51 65.71 -33.72 61.35 -35.96 56.97 C-37.26 53.25 -37.27 51.74 -36 48 C-34.02 44.93 -31.75 42.13 -29.44 39.31 C-28.15 37.7 -26.86 36.08 -25.57 34.46 C-24.95 33.69 -24.32 32.92 -23.68 32.12 C-21.03 28.78 -18.56 25.33 -16.08 21.87 C-12.79 17.33 -9.41 12.86 -6.03 8.39 C-5.54 7.74 -5.05 7.08 -4.54 6.41 C-4.1 5.82 -3.66 5.24 -3.2 4.63 C-2.09 3.12 -1.04 1.56 0 0 Z " fill="#FCB888" transform="translate(938,494)"/>
<path d="M0 0 C6.38 1.02 12.74 2.12 19.08 3.37 C51.65 9.75 84.28 13.53 117.47 14.66 C123.9 14.9 123.9 14.9 125 16 C125.14 17.67 125.2 19.36 125.24 21.04 C125.27 22.11 125.29 23.19 125.32 24.29 C125.4 29.24 125.47 34.19 125.51 39.13 C125.55 41.74 125.59 44.35 125.66 46.95 C125.75 50.71 125.79 54.46 125.82 58.22 C125.85 59.38 125.89 60.54 125.93 61.73 C125.92 67.8 125.48 71.25 121.11 75.67 C119.77 76.81 118.4 77.93 117 79 C116.12 79.71 115.25 80.41 114.35 81.14 C111.92 82.79 109.47 84.41 107 86 C105.96 86.7 105.96 86.7 104.89 87.41 C93.42 94.48 81.07 95.38 67.94 95.88 C66.68 95.92 65.43 95.97 64.14 96.02 C53.17 96.3 42.34 95.35 31.81 92.12 C30.24 91.66 30.24 91.66 28.64 91.2 C25.01 89.55 23.55 87.43 22.12 83.73 C21.89 82.9 21.65 82.07 21.41 81.22 C21.13 80.27 20.86 79.31 20.58 78.33 C20.29 77.31 20 76.28 19.71 75.22 C19.25 73.61 19.25 73.61 18.78 71.96 C17.78 68.48 16.8 64.99 15.81 61.5 C15.14 59.12 14.46 56.74 13.78 54.36 C12.45 49.69 11.13 45.01 9.8 40.34 C8.31 35.06 6.78 29.8 5.23 24.54 C4.85 23.24 4.47 21.93 4.09 20.63 C3.43 18.37 2.76 16.11 2.08 13.85 C1.8 12.87 1.52 11.89 1.22 10.88 C0.98 10.07 0.74 9.26 0.5 8.43 C-0.09 5.57 -0.08 2.9 0 0 Z " fill="#FBB787" transform="translate(714,204)"/>
<path d="M0 0 C1.33 6.97 1.09 13.93 1 21 C0.42 21.07 -0.17 21.15 -0.77 21.23 C-10.66 22.81 -20.56 27.07 -27.44 34.57 C-36.36 46.94 -37.33 60.32 -35.05 74.96 C-34.49 78.29 -33.9 81.62 -33.29 84.94 C-32.8 87.62 -32.33 90.3 -31.86 92.99 C-31.22 96.61 -30.57 100.23 -29.92 103.85 C-28.84 109.89 -27.76 115.94 -26.72 121.99 C-26.3 124.45 -25.87 126.91 -25.42 129.36 C-24.87 132.57 -24.4 135.77 -24 139 C-23.89 139.92 -23.77 140.83 -23.65 141.78 C-23.02 152.04 -26.97 161.45 -30.25 171 C-30.9 172.93 -31.54 174.86 -32.19 176.79 C-33.81 181.64 -35.45 186.48 -37.09 191.32 C-38.41 195.21 -39.71 199.1 -41 203 C-41.24 203.7 -41.47 204.4 -41.71 205.13 C-42.18 206.53 -42.65 207.94 -43.11 209.34 C-43.82 211.45 -44.52 213.55 -45.22 215.65 C-49.54 228.56 -53.79 241.5 -58.02 254.43 C-58.79 256.8 -59.57 259.17 -60.35 261.54 C-61.43 264.86 -62.52 268.18 -63.61 271.5 C-63.93 272.5 -64.26 273.5 -64.6 274.54 C-64.9 275.46 -65.21 276.39 -65.52 277.34 C-65.78 278.15 -66.04 278.96 -66.32 279.79 C-67.03 281.98 -67.03 281.98 -67.47 284.23 C-67.73 285.11 -67.73 285.11 -68 286 C-70.71 287.35 -73.01 287.07 -76 287 C-77.16 283.52 -76.79 282.32 -75.9 278.82 C-75.63 277.74 -75.36 276.67 -75.08 275.56 C-74.78 274.38 -74.47 273.21 -74.16 271.99 C-73.68 270.09 -73.2 268.18 -72.72 266.28 C-72.2 264.23 -71.67 262.18 -71.15 260.13 C-70.05 255.85 -68.97 251.57 -67.9 247.29 C-66.38 241.28 -64.87 235.27 -63.34 229.26 C-62.95 227.72 -62.56 226.18 -62.17 224.64 C-61.59 222.32 -61 220 -60.41 217.69 C-58.13 208.67 -55.86 199.65 -53.61 190.62 C-52.55 186.37 -51.48 182.13 -50.4 177.88 C-49.57 174.61 -48.75 171.32 -47.94 168.04 C-47.64 166.88 -47.34 165.72 -47.03 164.52 C-44.53 154.33 -44.4 145.26 -46.5 135.01 C-46.66 134.2 -46.82 133.39 -46.98 132.55 C-47.5 129.93 -48.03 127.31 -48.56 124.69 C-48.93 122.84 -49.3 121 -49.67 119.16 C-54.02 97.51 -59.16 76.08 -64.62 54.69 C-64.81 53.97 -64.99 53.26 -65.18 52.52 C-67.41 43.8 -69.77 35.14 -72.44 26.55 C-73.47 23.17 -74 20.57 -74 17 C-64.88 14.35 -55.73 11.84 -46.52 9.51 C-44.7 9.05 -44.7 9.05 -42.85 8.58 C-40.31 7.94 -37.77 7.3 -35.24 6.66 C-31.99 5.84 -28.75 5.02 -25.51 4.19 C-22.39 3.39 -19.27 2.61 -16.15 1.82 C-14.99 1.53 -13.83 1.23 -12.63 0.92 C-11.56 0.65 -10.48 0.38 -9.37 0.11 C-8.43 -0.13 -7.49 -0.37 -6.51 -0.62 C-3.96 -1.01 -2.42 -0.83 0 0 Z " fill="#DE9575" transform="translate(863,891)"/>
<path d="M0 0 C1.14 0.01 1.14 0.01 2.31 0.02 C21.2 0.23 39.21 3.17 57.56 7.56 C59.05 7.92 59.05 7.92 60.58 8.28 C61.51 8.52 62.43 8.76 63.39 9 C64.2 9.2 65.01 9.41 65.84 9.62 C69.31 10.94 71.56 12 74.31 14.56 C75.15 17.98 75.01 21.3 74.9 24.8 C74.89 25.79 74.88 26.78 74.87 27.81 C74.84 30.98 74.76 34.14 74.69 37.31 C74.66 39.46 74.63 41.61 74.61 43.76 C74.54 49.03 74.44 54.3 74.31 59.56 C-32.11 57.28 -32.11 57.28 -61.69 37.56 C-56.69 23.56 -44.87 13.06 -31.88 6.59 C-31.16 6.25 -30.43 5.91 -29.69 5.56 C-28.77 5.12 -27.86 4.68 -26.92 4.23 C-17.88 0.29 -9.66 -0.19 0 0 Z " fill="#353538" transform="translate(764.6875,119.4375)"/>
<path d="M0 0 C1.06 -0 1.06 -0 2.13 -0 C3.62 -0 5.1 -0 6.59 0 C8.87 0.01 11.15 0 13.43 -0 C14.87 -0 16.31 -0 17.75 0 C19.07 0 20.38 0 21.74 0 C24.74 0.13 24.74 0.13 25.74 1.13 C25.91 3.3 26 5.48 26.06 7.65 C26.08 8.33 26.1 9.01 26.13 9.71 C26.31 16.04 26.42 22.37 26.5 28.7 C26.55 32.95 26.64 37.2 26.78 41.45 C27.8 72.75 27.8 72.75 21.22 79.95 C19.53 81.41 17.82 82.67 15.95 83.9 C10.74 87.53 8.13 92.95 6.74 99.13 C6.88 101.87 7.27 104.42 7.74 107.13 C0.12 110.3 -7.93 112.56 -16.26 112.13 C-16.59 111.8 -16.92 111.47 -17.26 111.13 C-17.22 108.9 -17.1 106.67 -16.95 104.45 C-16.87 103.22 -16.79 102 -16.71 100.75 C-16.27 97.19 -15.8 94.37 -14.26 91.13 C-11.96 89.7 -11.96 89.7 -9.07 88.7 C-3.92 86.78 1.03 84.67 5.99 82.32 C6.66 82.01 7.33 81.69 8.02 81.37 C9.59 80.62 11.17 79.88 12.74 79.13 C9.05 66.98 3.57 55.4 -2.26 44.13 C-9.77 46.44 -16.72 49.53 -23.82 52.88 C-26.15 53.97 -28.47 55.05 -30.8 56.13 C-32.47 56.91 -32.47 56.91 -34.18 57.71 C-46.72 63.51 -59.51 68.8 -72.26 74.13 C-74.31 67.39 -74.53 61.21 -74.45 54.2 C-74.44 53.16 -74.44 52.13 -74.44 51.06 C-74.43 48.08 -74.4 45.11 -74.26 42.13 C-74.27 41.41 -74.29 40.68 -74.31 39.94 C-74.17 34.04 -74.17 34.04 -71.77 31.66 C-69.61 30.35 -67.44 29.31 -65.13 28.29 C-64.29 27.89 -63.45 27.48 -62.58 27.06 C-60.76 26.18 -58.93 25.32 -57.1 24.47 C-53.28 22.67 -49.52 20.76 -45.76 18.84 C-41.91 16.89 -38.05 14.96 -34.19 13.03 C-31.2 11.54 -28.22 10.05 -25.23 8.55 C-23.33 7.6 -21.42 6.64 -19.51 5.69 C-18.18 5.02 -18.18 5.02 -16.82 4.34 C-15.59 3.73 -15.59 3.73 -14.34 3.11 C-13.62 2.75 -12.9 2.39 -12.16 2.02 C-7.97 0.07 -4.58 0 0 0 Z " fill="#FB5A5A" transform="translate(413.2578125,38.8671875)"/>
<path d="M0 0 C3.7 2.03 5.65 3.48 8 7 C7.63 7.45 7.27 7.9 6.89 8.37 C2.31 14.14 -1.94 20.12 -6.18 26.15 C-9.89 31.44 -13.65 36.7 -17.44 41.94 C-17.98 42.68 -18.52 43.43 -19.07 44.19 C-21.26 47.22 -23.45 50.25 -25.65 53.27 C-31.97 62.01 -38.27 70.76 -44.47 79.59 C-48.74 85.66 -53.09 91.68 -57.46 97.67 C-61.11 102.7 -64.59 107.81 -68 113 C-73.54 112.66 -78.55 111.34 -83.81 109.62 C-84.47 109.42 -85.13 109.21 -85.81 108.99 C-89.3 107.82 -91.53 106.7 -94 104 C-93.75 103.42 -93.5 102.84 -93.24 102.25 C-87.73 89.82 -87.73 89.82 -82.88 77.12 C-81.15 72.15 -78.91 67.45 -76.64 62.7 C-74.19 57.52 -72.12 52.23 -70.12 46.86 C-68.91 43.77 -67.5 40.89 -65.96 37.96 C-64.84 35.68 -63.92 33.36 -63 31 C-61.74 27.83 -60.48 24.67 -59.06 21.56 C-58.79 20.95 -58.51 20.33 -58.22 19.69 C-54.95 15.17 -49.04 13.83 -43.95 12.19 C-43.18 11.93 -42.41 11.68 -41.62 11.41 C-39.16 10.6 -36.71 9.8 -34.25 9 C-32.61 8.46 -30.98 7.92 -29.34 7.38 C-25.62 6.15 -21.89 4.93 -18.15 3.71 C-16.63 3.21 -15.11 2.69 -13.59 2.17 C-12.8 1.9 -12.01 1.63 -11.19 1.35 C-10.48 1.1 -9.76 0.86 -9.03 0.6 C-5.85 -0.34 -3.28 -0.43 0 0 Z " fill="#FCB888" transform="translate(361,902)"/>
<path d="M0 0 C4.63 1.84 8.4 4.61 12.41 7.55 C13.74 8.5 13.74 8.5 15.09 9.46 C16.9 10.76 18.71 12.06 20.52 13.37 C24.19 16.02 27.9 18.63 31.6 21.23 C32.97 22.2 34.34 23.17 35.7 24.14 C38.96 26.44 42.23 28.72 45.5 30.99 C46.41 31.62 47.32 32.26 48.26 32.91 C50.04 34.14 51.81 35.37 53.59 36.6 C54.8 37.44 54.8 37.44 56.03 38.3 C56.75 38.8 57.46 39.29 58.19 39.8 C60.02 41.17 61.61 42.51 63.1 44.23 C63.1 44.89 63.1 45.55 63.1 46.23 C63.76 46.56 64.42 46.89 65.1 47.23 C64.51 47.95 63.92 48.66 63.31 49.39 C59.05 54.56 54.9 59.72 51.1 65.23 C43.89 61.06 38.59 54.72 32.91 48.71 C32.1 47.86 31.28 47.02 30.44 46.15 C29.33 44.99 29.33 44.99 28.2 43.8 C26.27 41.99 26.27 41.99 24.15 42.45 C21.79 43.35 20.8 44.29 19.15 46.19 C18.6 46.81 18.05 47.43 17.48 48.07 C16.9 48.75 16.31 49.42 15.7 50.11 C-7.7 75.96 -7.7 75.96 -18.65 76.75 C-28.56 76.25 -28.56 76.25 -32.7 72.68 C-34.25 70.94 -35.59 69.17 -36.9 67.23 C-37.77 65.97 -37.77 65.97 -38.66 64.67 C-39.15 63.87 -39.64 63.06 -40.15 62.23 C-43.12 57.44 -46.2 52.73 -49.34 48.05 C-49.79 47.37 -50.24 46.7 -50.7 46.01 C-51.76 44.42 -52.83 42.83 -53.9 41.23 C-51.86 37.44 -49.84 35.1 -46.4 32.53 C-45.52 31.86 -44.64 31.2 -43.73 30.51 C-42.79 29.82 -41.86 29.13 -40.9 28.42 C-39.94 27.7 -38.99 26.99 -38 26.25 C-32.59 22.2 -27.16 18.17 -21.65 14.25 C-19.35 12.57 -17.12 10.83 -14.9 9.06 C-14.19 8.5 -13.47 7.94 -12.74 7.37 C-11.33 6.26 -9.94 5.14 -8.55 4 C-5.61 1.71 -3.77 0.3 0 0 Z " fill="#FB5A5A" transform="translate(840.8984375,424.765625)"/>
<path d="M0 0 C0.13 9.39 0.26 18.78 0.39 28.17 C0.45 32.53 0.51 36.89 0.57 41.25 C0.63 45.47 0.69 49.69 0.75 53.92 C0.77 55.51 0.79 57.11 0.81 58.71 C0.88 63.11 0.93 67.52 0.97 71.92 C1 74 1.04 76.07 1.09 78.15 C1.19 84.95 1.09 90.63 -1.2 97.04 C-1.44 97.72 -1.67 98.39 -1.91 99.09 C-2.67 101.28 -3.46 103.45 -4.25 105.62 C-4.8 107.2 -5.35 108.77 -5.9 110.34 C-6.74 112.79 -7.59 115.23 -8.45 117.68 C-11.16 125.38 -13.66 133.14 -16.15 140.91 C-21.09 156.36 -26.27 171.72 -31.56 187.06 C-34.81 196.5 -37.99 205.96 -41.08 215.46 C-41.76 217.54 -42.45 219.62 -43.13 221.7 C-44.12 224.74 -45.11 227.77 -46.09 230.81 C-46.99 233.61 -47.9 236.41 -48.82 239.21 C-49.08 240.04 -49.35 240.87 -49.62 241.73 C-51.05 246.06 -52.27 249.13 -56 252 C-59.02 253.27 -59.02 253.27 -62.25 254.25 C-63.33 254.59 -64.41 254.92 -65.52 255.27 C-66.34 255.51 -67.16 255.75 -68 256 C-68.11 253.81 -68.19 251.63 -68.25 249.44 C-68.3 248.22 -68.34 247 -68.39 245.75 C-67.91 233.46 -62.4 220.92 -58.4 209.41 C-56.82 204.87 -55.26 200.31 -53.7 195.76 C-53.38 194.84 -53.06 193.92 -52.73 192.97 C-50.84 187.46 -48.96 181.95 -47.12 176.43 C-46.89 175.75 -46.66 175.08 -46.43 174.38 C-45.26 170.89 -44.12 167.39 -42.99 163.88 C-40.28 155.54 -37.38 147.31 -34.21 139.12 C-20.83 104.34 -15.09 74.31 -16.87 36.9 C-17.44 23.48 -14.66 13.7 -5.68 3.66 C-1.98 0 -1.98 0 0 0 Z " fill="#DE9575" transform="translate(397,613)"/>
<path d="M0 0 C2.68 4.94 3.94 10.72 5.41 16.12 C5.79 17.49 5.79 17.49 6.18 18.89 C6.67 20.72 7.16 22.55 7.63 24.39 C10.37 34.53 15.3 41.98 24 48 C47.89 61.2 79.3 63.31 105.94 59.94 C107.4 59.75 107.4 59.75 108.89 59.56 C118.67 58.16 127.76 55.19 136.98 51.71 C138.99 51 140.91 50.38 143 50 C143.66 50.33 144.32 50.66 145 51 C145.23 55.06 145.43 59.12 145.62 63.19 C145.69 64.34 145.75 65.49 145.82 66.67 C145.87 67.79 145.92 68.9 145.98 70.04 C146.03 71.06 146.08 72.09 146.14 73.14 C145.99 76.17 145.29 78.27 144 81 C143.67 80.34 143.34 79.68 143 79 C142.46 79.31 141.93 79.62 141.38 79.94 C135.64 82.51 129.37 82.15 123.21 82.16 C121.75 82.17 121.75 82.17 120.27 82.18 C117.07 82.19 113.87 82.2 110.67 82.2 C108.44 82.21 106.21 82.21 103.98 82.22 C99.3 82.23 94.62 82.24 89.94 82.24 C83.97 82.25 77.99 82.27 72.02 82.3 C67.41 82.32 62.8 82.32 58.19 82.32 C55.98 82.33 53.78 82.33 51.58 82.35 C48.49 82.36 45.4 82.36 42.31 82.36 C41.41 82.37 40.51 82.37 39.59 82.38 C27.7 82.31 17.14 78.13 8.67 69.67 C1.6 61.33 -1.3 51.6 -4.2 41.21 C-4.62 39.72 -4.62 39.72 -5.05 38.21 C-5.64 36.13 -6.22 34.05 -6.8 31.98 C-7.69 28.81 -8.59 25.64 -9.49 22.48 C-10.06 20.45 -10.63 18.42 -11.2 16.39 C-11.47 15.46 -11.73 14.52 -12.01 13.55 C-13.36 8.7 -14.43 4 -15 -1 C-10.12 -2.83 -4.8 -1.6 0 0 Z " fill="#DE9575" transform="translate(692,278)"/>
<path d="M0 0 C5.13 1.62 9.93 3.42 14.81 5.69 C24.95 9.92 34.19 8.03 44.55 5.56 C48.11 4.98 50.55 5 54 6 C56.02 9.03 56.86 11.57 58 15 C58.52 15.97 59.03 16.94 59.56 17.94 C61.15 21.33 61.63 24.29 62 28 C62.66 28 63.32 28 64 28 C64.19 28.77 64.39 29.54 64.59 30.34 C64.98 31.84 64.98 31.84 65.38 33.38 C65.63 34.37 65.89 35.37 66.15 36.4 C66.82 39.13 66.82 39.13 69 41 C70.23 43.46 71.05 45.23 70.88 48 C69.58 50.96 67.75 51.4 64.81 52.62 C63.82 53.04 62.83 53.46 61.81 53.89 C58.9 55.04 56 56.11 53 57 C53.64 60.77 54.72 64.06 56.19 67.59 C56.63 68.67 57.08 69.76 57.54 70.87 C58.02 72.03 58.5 73.18 59 74.38 C60 76.8 61 79.23 61.99 81.66 C62.24 82.27 62.5 82.88 62.75 83.51 C65.26 89.61 67.71 95.74 70.12 101.88 C70.5 102.82 70.88 103.77 71.27 104.75 C71.62 105.64 71.96 106.52 72.32 107.43 C72.62 108.2 72.92 108.96 73.23 109.75 C74.05 112.15 74.56 114.51 75 117 C72.15 117.82 69.29 118.63 66.44 119.44 C65.64 119.67 64.84 119.9 64.01 120.13 C62.83 120.47 62.83 120.47 61.62 120.81 C60.54 121.11 60.54 121.11 59.45 121.43 C56.32 122.16 53.18 122.58 50 123 C49.64 122.1 49.28 121.21 48.91 120.29 C41.38 101.57 33.75 82.91 25.94 64.31 C15.21 38.76 15.21 38.76 9.97 26.07 C9.38 24.63 8.78 23.19 8.18 21.75 C5.2 14.57 2.33 7.42 0 0 Z " fill="#DE9575" transform="translate(773,670)"/>
<path d="M0 0 C6.46 2.3 6.46 2.3 8.35 4.75 C9.31 8.05 8.23 9.67 6.77 12.75 C6.24 13.9 5.71 15.05 5.16 16.24 C4.57 17.49 3.97 18.75 3.38 20 C2.47 21.96 1.56 23.91 0.66 25.87 C0.04 27.22 -0.58 28.57 -1.21 29.92 C-4.41 36.84 -7.4 43.85 -10.38 50.88 C-13.84 59.03 -17.39 67.12 -21.2 75.12 C-25.36 83.97 -29.13 93.02 -33 102 C-36.52 102 -37.91 101.14 -40.96 99.43 C-41.94 98.88 -42.92 98.33 -43.94 97.77 C-48.87 94.92 -53.75 92.01 -58.62 89.06 C-60.81 87.75 -62.99 86.43 -65.18 85.12 C-66.87 84.09 -68.57 83.07 -70.27 82.04 C-74.34 79.59 -78.41 77.14 -82.48 74.69 C-84.66 73.38 -86.85 72.06 -89.03 70.75 C-90.02 70.15 -91 69.56 -92.02 68.95 C-92.89 68.43 -93.75 67.9 -94.65 67.37 C-96.72 66.16 -98.86 65.07 -101 64 C-101 58.39 -101 52.78 -101 47 C-98 46 -98 46 -95.74 46.86 C-94.43 47.54 -94.43 47.54 -93.11 48.24 C-92.15 48.73 -91.19 49.22 -90.21 49.72 C-88.71 50.51 -88.71 50.51 -87.19 51.31 C-74.26 58.04 -63.11 61.56 -48.51 58.2 C-32.47 52.16 -25.65 38.69 -18.5 24.19 C-18.02 23.23 -17.55 22.28 -17.06 21.29 C-13.93 14.98 -10.94 8.63 -8.12 2.17 C-6.06 -1.82 -3.92 -1.05 0 0 Z " fill="#DE9575" transform="translate(543,566)"/>
<path d="M0 0 C4.51 0.6 7.86 2.37 11.81 4.56 C12.41 4.89 13.01 5.22 13.62 5.56 C15.09 6.37 16.54 7.18 18 8 C18 8.66 18 9.32 18 10 C18.66 10 19.32 10 20 10 C19.43 15.74 17.22 20.4 14.81 25.56 C14.44 26.38 14.06 27.2 13.68 28.04 C12 31.7 10.3 35.35 8.6 39 C4.99 46.78 1.5 54.6 -1.95 62.45 C-3.58 66.16 -5.21 69.87 -6.84 73.57 C-7.18 74.34 -7.52 75.11 -7.87 75.9 C-33.27 133.53 -33.27 133.53 -37 141 C-52.97 138.89 -52.97 138.89 -59 137 C-59.33 136.34 -59.66 135.68 -60 135 C-59.06 132.62 -58.06 130.32 -57 128 C-56.4 126.56 -55.8 125.13 -55.2 123.69 C-51.77 115.45 -48.26 107.28 -44.43 99.21 C-42.68 95.51 -41.05 91.79 -39.5 88 C-37.69 83.58 -35.73 79.25 -33.69 74.94 C-30.53 68.28 -27.64 61.52 -24.84 54.7 C-23.35 51.09 -21.81 47.54 -20.03 44.06 C-17.68 39.45 -15.69 34.71 -13.69 29.94 C-9.4 19.83 -4.96 9.8 0 0 Z " fill="#FCB888" transform="translate(589,587)"/>
<path d="M0 0 C1.47 1.69 1.47 1.69 3 4.07 C3.57 4.94 4.15 5.81 4.73 6.7 C5.34 7.65 5.94 8.59 6.56 9.56 C7.83 11.5 9.1 13.45 10.36 15.39 C10.98 16.35 11.6 17.31 12.24 18.29 C14.94 22.44 17.69 26.55 20.45 30.66 C22.53 33.76 24.56 36.88 26.55 40.04 C31.75 48.22 36.17 54.85 45.56 58.31 C50.84 59.4 56.34 59.34 61.71 59.46 C65 60 65 60 66.95 62.04 C67.3 62.69 67.64 63.33 68 64 C67.34 64 66.68 64 66 64 C65.77 64.55 65.54 65.11 65.31 65.68 C63.63 68.66 61.5 70.73 59.06 73.12 C58.19 73.99 57.31 74.86 56.41 75.76 C50.01 81.71 42.41 80.63 34.12 80.76 C32.26 80.79 30.39 80.85 28.53 80.94 C13.4 81.63 13.4 81.63 8.47 78.28 C6.74 75.97 5.4 73.62 4.1 71.04 C2.26 67.63 0.04 64.48 -2.12 61.27 C-4.08 58.37 -6 55.46 -7.91 52.54 C-8.56 51.55 -9.21 50.56 -9.88 49.54 C-10.54 48.53 -11.2 47.53 -11.88 46.5 C-13.22 44.46 -14.56 42.41 -15.91 40.37 C-18.84 35.9 -21.78 31.43 -24.71 26.96 C-25.8 25.3 -26.9 23.65 -28 22 C-27.85 19.15 -27.2 18.19 -25.11 16.22 C-24.31 15.63 -23.5 15.04 -22.67 14.43 C-21.79 13.78 -20.91 13.13 -20 12.46 C-19.07 11.79 -18.14 11.13 -17.19 10.44 C-16.27 9.77 -15.36 9.09 -14.41 8.4 C-12.7 7.15 -10.99 5.9 -9.27 4.65 C-7.78 3.57 -6.32 2.45 -4.89 1.29 C-3 0 -3 0 0 0 Z " fill="#DE9575" transform="translate(749,480)"/>
<path d="M0 0 C1.32 2.6 2.37 5.03 3.38 7.75 C3.99 9.33 4.6 10.9 5.22 12.47 C5.52 13.25 5.82 14.03 6.13 14.83 C7.27 17.67 8.55 20.43 9.88 23.19 C13.14 30.12 15.99 37.21 18.84 44.31 C19.21 45.22 19.57 46.12 19.95 47.06 C20.27 47.87 20.6 48.67 20.93 49.51 C22 52.11 22 52.11 23.61 54.89 C25.19 58.43 25.35 60.85 25.29 64.71 C25.28 66.58 25.28 66.58 25.26 68.48 C25.24 69.77 25.21 71.05 25.19 72.38 C25.17 74.34 25.17 74.34 25.15 76.34 C25.11 79.56 25.06 82.78 25 86 C21.66 87.15 18.4 88.22 14.91 88.85 C13.86 89.04 13.86 89.04 12.79 89.24 C12.07 89.37 11.36 89.49 10.62 89.62 C9.52 89.83 9.52 89.83 8.39 90.03 C6.6 90.36 4.8 90.68 3 91 C2.75 90.4 2.49 89.79 2.23 89.17 C-3.7 75.11 -9.67 61.08 -15.69 47.06 C-19.75 37.59 -23.82 28.12 -27.81 18.62 C-28.12 17.9 -28.43 17.17 -28.74 16.41 C-30.19 12.96 -31.62 9.49 -33 6 C-32.67 5.67 -32.34 5.34 -32 5 C-32.66 4.34 -33.32 3.68 -34 3 C-33.12 2.98 -33.12 2.98 -32.22 2.96 C-29.5 2.88 -26.78 2.78 -24.06 2.69 C-23.14 2.66 -22.21 2.64 -21.26 2.62 C-15.71 2.4 -11.12 1.66 -5.97 -0.47 C-3.55 -1.12 -2.3 -0.99 0 0 Z " fill="#DE9575" transform="translate(854,537)"/>
<path d="M0 0 C1.16 2.62 2.17 5.18 3.12 7.88 C3.39 8.6 3.65 9.32 3.93 10.06 C5.12 13.35 6.17 16.6 7 20 C-2.32 22.72 -11.67 25.24 -21.1 27.57 C-22.42 27.9 -23.74 28.23 -25.06 28.56 C-28.53 29.43 -32.01 30.29 -35.48 31.16 C-41.23 32.58 -46.98 34.01 -52.73 35.44 C-54.15 35.8 -55.58 36.15 -57 36.51 C-65.7 38.67 -74.39 40.86 -83.07 43.09 C-84.76 43.52 -86.46 43.95 -88.15 44.38 C-90.42 44.96 -92.7 45.55 -94.97 46.14 C-96.97 46.67 -98.98 47.18 -100.98 47.69 C-102.06 47.97 -103.14 48.25 -104.26 48.54 C-106.99 49 -108.49 49.16 -111 48 C-114.27 40.96 -116.67 33.67 -115 26 C-114.29 25.83 -113.58 25.65 -112.85 25.47 C-105.93 23.78 -99.02 22.08 -92.1 20.39 C-88.4 19.48 -84.7 18.57 -81 17.66 C-65.75 13.93 -50.51 10.17 -35.32 6.2 C-34.22 5.91 -33.12 5.62 -31.99 5.33 C-26.88 3.99 -21.78 2.65 -16.68 1.28 C-14.88 0.81 -13.09 0.34 -11.29 -0.13 C-10.48 -0.35 -9.68 -0.58 -8.85 -0.81 C-3.34 -2.23 -3.34 -2.23 0 0 Z " fill="#FCB888" transform="translate(865,826)"/>
<path d="M0 0 C3.9 0.55 7.23 1.34 10.83 2.93 C11.71 3.31 12.59 3.7 13.5 4.09 C14.86 4.7 14.86 4.7 16.25 5.31 C18.05 6.1 19.84 6.89 21.64 7.68 C22.52 8.06 23.41 8.45 24.32 8.85 C27.78 10.34 31.29 11.73 34.8 13.09 C35.53 13.39 36.25 13.69 37 14 C37.71 14.28 38.41 14.57 39.14 14.86 C41.49 16.3 42.15 17.63 43.36 20.09 C45.91 24.94 48.92 29.23 52.19 33.62 C56.45 39.44 60.63 45.3 64.62 51.31 C65.23 52.22 65.23 52.22 65.84 53.14 C67.98 56.38 70.03 59.66 72 63 C68.95 62.32 66.23 61.32 63.37 60.06 C62.44 59.65 61.5 59.24 60.54 58.81 C59.51 58.36 58.49 57.91 57.44 57.44 C56.36 56.96 55.28 56.48 54.17 55.99 C42.91 51 31.71 45.87 20.52 40.72 C14.3 37.87 8.09 35.01 1.8 32.3 C0.94 31.93 0.09 31.57 -0.8 31.18 C-2.29 30.54 -3.79 29.91 -5.29 29.29 C-6.9 28.61 -8.46 27.81 -10 27 C-11.3 23.11 -10.41 22.11 -8.69 18.46 C-8.19 17.38 -7.69 16.31 -7.18 15.21 C-6.64 14.09 -6.11 12.97 -5.56 11.81 C-4.77 10.12 -4.77 10.12 -3.96 8.38 C-2.65 5.59 -1.33 2.79 0 0 Z " fill="#DE9474" transform="translate(645,616)"/>
<path d="M0 0 C4.77 1.67 8.48 4.47 12.54 7.44 C13.42 8.07 14.3 8.7 15.21 9.35 C17.02 10.65 18.83 11.95 20.64 13.26 C24.31 15.91 28.02 18.52 31.72 21.12 C33.09 22.09 34.46 23.06 35.82 24.03 C39.08 26.33 42.35 28.61 45.62 30.88 C46.53 31.51 47.44 32.15 48.38 32.8 C50.16 34.03 51.93 35.27 53.71 36.49 C54.92 37.33 54.92 37.33 56.15 38.19 C56.87 38.69 57.58 39.18 58.32 39.69 C60.14 41.06 61.73 42.4 63.22 44.12 C63.22 44.78 63.22 45.44 63.22 46.12 C63.88 46.45 64.54 46.78 65.22 47.12 C64.63 47.84 64.04 48.55 63.43 49.29 C59.17 54.45 55.02 59.61 51.22 65.12 C45.07 61.51 40.35 56.54 35.35 51.5 C34.47 50.63 33.59 49.76 32.68 48.86 C31.85 48.03 31.02 47.19 30.17 46.34 C29.41 45.58 28.65 44.82 27.87 44.03 C26.22 42.12 26.22 42.12 26.22 40.12 C25.64 40.01 25.05 39.89 24.44 39.77 C22.11 39.09 20.67 38.24 18.71 36.82 C17.71 36.11 17.71 36.11 16.69 35.38 C15.98 34.86 15.27 34.34 14.54 33.81 C13.02 32.72 11.5 31.64 9.98 30.55 C9.2 29.98 8.42 29.42 7.61 28.84 C3.73 26.05 -0.18 23.31 -4.09 20.56 C-12.2 14.86 -12.2 14.86 -15.78 12.12 C-14.25 8.19 -11.87 6.31 -8.53 3.81 C-7.59 3.09 -6.66 2.38 -5.7 1.64 C-2.78 0.12 -2.78 0.12 0 0 Z " fill="#DE9474" transform="translate(840.77734375,424.875)"/>
<path d="M0 0 C7.5 -0.19 14.47 1.1 21.79 2.62 C23.11 2.89 24.43 3.15 25.75 3.42 C27.88 3.84 30.01 4.27 32.14 4.7 C38.1 5.91 44.06 7.08 50.03 8.23 C50.95 8.41 51.87 8.58 52.82 8.77 C56.48 9.48 60.15 10.18 63.81 10.89 C66.38 11.39 68.94 11.89 71.51 12.38 C72.27 12.53 73.02 12.68 73.8 12.83 C78.64 13.77 83.4 14.89 88.17 16.12 C88.17 16.78 88.17 17.44 88.17 18.12 C88.83 18.12 89.49 18.12 90.17 18.12 C90.17 18.78 90.17 19.44 90.17 20.12 C51.23 20.12 12.29 20.12 -27.83 20.12 C-29.49 16.81 -28.93 13.13 -28.89 9.49 C-28.89 8.69 -28.88 7.89 -28.88 7.06 C-28.87 5.08 -28.85 3.1 -28.83 1.12 C-24.73 0.95 -20.62 0.78 -16.52 0.62 C-15.37 0.57 -14.22 0.52 -13.04 0.47 C-8.69 0.3 -4.35 0.18 0 0 Z " fill="#FBB787" transform="translate(808.8310546875,1218.880859375)"/>
<path d="M0 0 C1.06 -0 1.06 -0 2.13 -0 C3.62 -0 5.1 -0 6.59 0 C8.87 0.01 11.15 0 13.43 -0 C14.87 -0 16.31 -0 17.75 0 C19.07 0 20.38 0 21.74 0 C24.74 0.13 24.74 0.13 25.74 1.13 C25.84 2.76 25.86 4.39 25.86 6.02 C25.86 7.58 25.86 7.58 25.86 9.17 C25.85 10.31 25.85 11.44 25.84 12.61 C25.84 13.76 25.84 14.91 25.84 16.1 C25.83 19.8 25.82 23.5 25.8 27.2 C25.8 29.7 25.8 32.2 25.79 34.7 C25.78 40.84 25.76 46.99 25.74 53.13 C22.73 49.43 22.73 49.43 22.81 46.75 C22.65 40.66 15.92 34.52 11.94 30.16 C3.48 22.25 -7.28 20.93 -18.32 20.82 C-19.8 20.78 -19.8 20.78 -21.31 20.73 C-33.08 20.63 -42.27 25.42 -52.51 30.76 C-62.93 36.19 -62.93 36.19 -67.3 37.28 C-70.55 37.87 -70.55 37.87 -72.26 41.13 C-72.59 38.49 -72.92 35.85 -73.26 33.13 C-60.32 26.25 -47.3 19.57 -34.19 13.03 C-31.2 11.54 -28.22 10.05 -25.23 8.55 C-23.33 7.6 -21.42 6.64 -19.51 5.69 C-18.18 5.02 -18.18 5.02 -16.82 4.34 C-15.59 3.73 -15.59 3.73 -14.34 3.11 C-13.62 2.75 -12.9 2.39 -12.16 2.02 C-7.97 0.07 -4.58 0 0 0 Z " fill="#DE9575" transform="translate(413.2578125,38.8671875)"/>
<path d="M0 0 C0.99 0.24 1.99 0.47 3.01 0.72 C3.94 0.95 4.87 1.19 5.83 1.44 C6.64 1.64 7.45 1.85 8.28 2.06 C11.75 3.38 14 4.44 16.75 7 C17.59 10.41 17.45 13.74 17.34 17.23 C17.33 18.23 17.32 19.22 17.31 20.24 C17.28 23.41 17.2 26.58 17.12 29.75 C17.09 31.9 17.07 34.05 17.04 36.2 C16.98 41.47 16.88 46.73 16.75 52 C13.6 51.86 10.46 51.71 7.31 51.56 C6.41 51.52 5.52 51.48 4.59 51.44 C3.74 51.4 2.88 51.36 2 51.32 C1.21 51.28 0.42 51.24 -0.39 51.21 C-2.25 51 -2.25 51 -3.25 50 C-3.39 47.75 -3.48 45.5 -3.56 43.25 C-4.31 29.64 -8.5 18.14 -18.56 8.62 C-26.51 2.39 -36.57 0.84 -46.25 -1 C-45.59 -1.66 -44.93 -2.32 -44.25 -3 C-45.24 -2.98 -46.23 -2.96 -47.25 -2.94 C-51.3 -3 -55.2 -3.42 -59.19 -4 C-60.21 -4.14 -60.21 -4.14 -61.26 -4.29 C-62.92 -4.52 -64.59 -4.76 -66.25 -5 C-66.25 -5.33 -66.25 -5.66 -66.25 -6 C-45.3 -11.31 -20.42 -4.93 0 0 Z " fill="#725A53" transform="translate(822.25,127)"/>
<path d="M0 0 C5.71 -0.46 8.55 0.38 13 4 C13.99 5.49 13.99 5.49 15 7 C14.63 7.45 14.27 7.9 13.89 8.37 C9.31 14.14 5.06 20.12 0.82 26.15 C-2.89 31.44 -6.65 36.7 -10.44 41.94 C-10.98 42.68 -11.52 43.43 -12.07 44.19 C-14.26 47.22 -16.45 50.25 -18.65 53.27 C-24.97 62.01 -31.27 70.76 -37.47 79.59 C-41.74 85.66 -46.09 91.68 -50.46 97.67 C-54.11 102.7 -57.59 107.81 -61 113 C-61.99 112.67 -62.98 112.34 -64 112 C-61.2 104.95 -57.49 98.89 -53.25 92.62 C-47.55 84.04 -42.14 75.33 -36.94 66.44 C-31.48 57.13 -25.86 47.96 -20.03 38.88 C-16.06 32.71 -12.21 26.48 -8.44 20.19 C-7.96 19.39 -7.48 18.6 -6.99 17.78 C-3.89 12.58 -0.91 7.31 2 2 C1.01 1.01 1.01 1.01 0 0 Z " fill="#DE9575" transform="translate(354,902)"/>
<path d="M0 0 C3.74 1.35 6.72 3.05 9.94 5.38 C10.8 5.99 11.66 6.61 12.55 7.25 C13.36 7.82 14.17 8.4 15 9 C16.99 10.35 18.99 11.68 21 13 C20.67 14.32 20.34 15.64 20 17 C13 17 6.38 7.5 1.69 2.82 C0 1 0 1 0 0 Z " fill="#F85858" transform="translate(873,472)"/>
<path d="M0 0 C2.64 0.33 5.28 0.66 8 1 C8 1.66 8 2.32 8 3 C-9.82 3 -27.64 3 -46 3 C-46 2.67 -46 2.34 -46 2 C-23.23 1.51 -23.23 1.51 0 1 C0 0.67 0 0.34 0 0 Z " fill="#DF9675" transform="translate(884,1233)"/>
<path d="" fill="#000000" transform="translate(0,0)"/>
<path d="" fill="#000000" transform="translate(0,0)"/>
<path d="" fill="#000000" transform="translate(0,0)"/>
</svg>
